<svg xmlns="http://www.w3.org/2000/svg" version="1.1" xmlns:xlink="http://www.w3.org/1999/xlink" width="1000" height="1000"><g clip-path="url(#SvgjsClipPath1244)"><rect width="1000" height="1000" fill="#ffffff"></rect><g transform="matrix(1.7053206002728514,0,0,1.7053206002728514,100,124.13028649386084)"><svg xmlns="http://www.w3.org/2000/svg" version="1.1" xmlns:xlink="http://www.w3.org/1999/xlink" width="469.12" height="440.82"><svg xmlns="http://www.w3.org/2000/svg" viewBox="0 0 469.12 440.82"><g id="Layer_2" data-name="Layer 2"><g id="logo"><polygon points="407.68 47.52 407.68 48.47 406.93 48.03 345.47 89.64 236.19 161.37 0 0 0 0 0 0 0 398.91 61.44 358.05 61.44 122.73 356.06 314.33 355.98 243.21 290.52 198.49 307.92 186.68 407.68 121.19 407.68 358.05 469.12 398.91 469.12 0 407.68 47.52"></polygon><polygon points="114.1 317.49 298.57 440.82 298.87 367.13 114.1 243.94 114.1 317.49"></polygon></g></g></svg></svg></g></g><defs><clipPath id="SvgjsClipPath1244"><rect width="1000" height="1000" x="0" y="0" rx="0" ry="0"></rect></clipPath></defs></svg>